<svg xmlns="http://www.w3.org/2000/svg" xmlns:xlink="http://www.w3.org/1999/xlink" width="50" zoomAndPan="magnify" viewBox="0 0 37.5 37.499999" height="50" preserveAspectRatio="xMidYMid meet" version="1.0"><defs><g/></defs><g fill="#000000" fill-opacity="1"><g transform="translate(3.916303, 28.069849)"><g><path d="M 1.578125 0.171875 L 1.21875 0.171875 C 1.21875 -0.972656 1.773438 -4.015625 2.890625 -8.953125 C 4.003906 -13.898438 4.5625 -16.632812 4.5625 -17.15625 C 4.5625 -17.988281 4.253906 -18.78125 3.640625 -19.53125 L 3.328125 -19.921875 L 3.421875 -20.515625 C 4.597656 -20.910156 6.742188 -21.109375 9.859375 -21.109375 C 10.171875 -20.398438 10.335938 -19.554688 10.359375 -18.578125 C 12.679688 -20.285156 14.664062 -21.140625 16.3125 -21.140625 C 18.207031 -21.140625 19.332031 -20.328125 19.6875 -18.703125 C 21.925781 -20.328125 23.878906 -21.140625 25.546875 -21.140625 C 26.679688 -21.140625 27.601562 -20.828125 28.3125 -20.203125 C 29.03125 -19.578125 29.390625 -18.671875 29.390625 -17.484375 C 29.390625 -16.304688 28.957031 -14.066406 28.09375 -10.765625 C 27.226562 -7.460938 26.796875 -5.113281 26.796875 -3.71875 C 26.796875 -3.207031 26.90625 -2.953125 27.125 -2.953125 C 27.539062 -2.953125 28.050781 -3.070312 28.65625 -3.3125 L 29.28125 -1.609375 C 27.425781 -0.296875 25.597656 0.359375 23.796875 0.359375 C 22.941406 0.359375 22.253906 0.101562 21.734375 -0.40625 C 21.222656 -0.925781 20.96875 -1.6875 20.96875 -2.6875 C 20.96875 -3.695312 21.378906 -5.882812 22.203125 -9.25 C 23.023438 -12.613281 23.4375 -14.660156 23.4375 -15.390625 C 23.4375 -16.128906 23.347656 -16.625 23.171875 -16.875 C 22.992188 -17.125 22.644531 -17.25 22.125 -17.25 C 21.613281 -17.25 20.800781 -16.867188 19.6875 -16.109375 C 19.550781 -15.191406 19.242188 -13.710938 18.765625 -11.671875 C 17.515625 -6.453125 16.890625 -2.75 16.890625 -0.5625 C 15.910156 -0.0507812 14.234375 0.203125 11.859375 0.203125 L 11.046875 0.203125 C 11.046875 -1.617188 11.507812 -4.472656 12.4375 -8.359375 C 13.375 -12.253906 13.84375 -14.585938 13.84375 -15.359375 C 13.84375 -16.140625 13.757812 -16.648438 13.59375 -16.890625 C 13.425781 -17.128906 13.078125 -17.25 12.546875 -17.25 C 12.023438 -17.25 11.195312 -16.859375 10.0625 -16.078125 C 9.882812 -15.085938 9.519531 -13.441406 8.96875 -11.140625 C 7.675781 -5.753906 7.03125 -2.238281 7.03125 -0.59375 C 6.15625 -0.0820312 4.335938 0.171875 1.578125 0.171875 Z M 1.578125 0.171875 "/></g></g></g></svg>